<svg xmlns="http://www.w3.org/2000/svg" width="260.02" height="35" viewBox="0 0 260.02 35"><rect class="svg__rect" x="0" y="0" width="115.31" height="35" fill="#FFFFFF" data-darkreader-inline-fill="" style="--darkreader-inline-fill:#181a1b;"/><rect class="svg__rect" x="113.31" y="0" width="146.71" height="35" fill="#ACE0FF" data-darkreader-inline-fill="" style="--darkreader-inline-fill:#2f3335;"/><path class="svg__text" d="M15.69 22L14.22 22L14.22 13.47L16.14 13.47L18.60 20.01L21.06 13.47L22.97 13.47L22.97 22L21.49 22L21.49 19.19L21.64 15.43L19.12 22L18.06 22L15.55 15.43L15.69 19.19L15.69 22ZM28.49 22L26.95 22L30.17 13.47L31.50 13.47L34.73 22L33.18 22L32.49 20.01L29.18 20.01L28.49 22ZM30.83 15.28L29.60 18.82L32.07 18.82L30.83 15.28ZM41.14 22L38.69 22L38.69 13.47L41.21 13.47Q42.34 13.47 43.21 13.97Q44.09 14.48 44.57 15.40Q45.05 16.33 45.05 17.52L45.05 17.52L45.05 17.95Q45.05 19.16 44.57 20.08Q44.08 21.00 43.19 21.50Q42.30 22 41.14 22L41.14 22ZM40.17 14.66L40.17 20.82L41.14 20.82Q42.30 20.82 42.93 20.09Q43.55 19.36 43.56 17.99L43.56 17.99L43.56 17.52Q43.56 16.13 42.96 15.40Q42.35 14.66 41.21 14.66L41.21 14.66L40.17 14.66ZM55.09 22L49.51 22L49.51 13.47L55.05 13.47L55.05 14.66L51.00 14.66L51.00 17.02L54.50 17.02L54.50 18.19L51.00 18.19L51.00 20.82L55.09 20.82L55.09 22ZM66.65 22L64.68 13.47L66.15 13.47L67.47 19.88L69.10 13.47L70.34 13.47L71.96 19.89L73.27 13.47L74.74 13.47L72.77 22L71.35 22L69.73 15.77L68.07 22L66.65 22ZM80.38 22L78.90 22L78.90 13.47L80.38 13.47L80.38 22ZM86.87 14.66L84.23 14.66L84.23 13.47L91.00 13.47L91.00 14.66L88.34 14.66L88.34 22L86.87 22L86.87 14.66ZM96.24 22L94.75 22L94.75 13.47L96.24 13.47L96.24 17.02L100.05 17.02L100.05 13.47L101.53 13.47L101.53 22L100.05 22L100.05 18.21L96.24 18.21L96.24 22Z" fill="#000000" data-darkreader-inline-fill="" style="--darkreader-inline-fill:#000000;"/><path class="svg__text" d="M129.88 22L127.50 22L127.50 13.60L131.34 13.60Q132.48 13.60 133.32 13.98Q134.16 14.35 134.62 15.06Q135.07 15.76 135.07 16.71L135.07 16.71Q135.07 17.66 134.62 18.35Q134.16 19.05 133.32 19.42Q132.48 19.80 131.34 19.80L131.34 19.80L129.88 19.80L129.88 22ZM129.88 15.47L129.88 17.93L131.20 17.93Q131.93 17.93 132.30 17.61Q132.67 17.29 132.67 16.71L132.67 16.71Q132.67 16.12 132.30 15.80Q131.93 15.47 131.20 15.47L131.20 15.47L129.88 15.47ZM139.40 17.80L139.40 17.80Q139.40 16.55 140.00 15.55Q140.61 14.56 141.67 14.00Q142.73 13.43 144.06 13.43L144.06 13.43Q145.39 13.43 146.46 14.00Q147.52 14.56 148.13 15.55Q148.73 16.55 148.73 17.80L148.73 17.80Q148.73 19.05 148.13 20.04Q147.52 21.04 146.46 21.60Q145.40 22.17 144.06 22.17L144.06 22.17Q142.73 22.17 141.67 21.60Q140.61 21.04 140.00 20.04Q139.40 19.05 139.40 17.80ZM141.79 17.80L141.79 17.80Q141.79 18.51 142.10 19.05Q142.40 19.60 142.91 19.90Q143.43 20.20 144.06 20.20L144.06 20.20Q144.70 20.20 145.22 19.90Q145.73 19.60 146.03 19.05Q146.33 18.51 146.33 17.80L146.33 17.80Q146.33 17.09 146.03 16.54Q145.73 16 145.22 15.70Q144.70 15.40 144.06 15.40L144.06 15.40Q143.42 15.40 142.91 15.70Q142.40 16 142.10 16.54Q141.79 17.09 141.79 17.80ZM155.54 22L152.82 13.60L155.27 13.60L156.95 18.96L158.73 13.60L160.91 13.60L162.61 19.01L164.37 13.60L166.64 13.60L163.91 22L161.37 22L159.77 16.89L158.08 22L155.54 22ZM177.89 22L171.15 22L171.15 13.60L177.74 13.60L177.74 15.44L173.51 15.44L173.51 16.85L177.24 16.85L177.24 18.63L173.51 18.63L173.51 20.17L177.89 20.17L177.89 22ZM185.08 22L182.70 22L182.70 13.60L186.54 13.60Q187.69 13.60 188.52 13.98Q189.36 14.35 189.82 15.06Q190.28 15.76 190.28 16.71L190.28 16.71Q190.28 17.62 189.85 18.30Q189.42 18.98 188.63 19.36L188.63 19.36L190.44 22L187.90 22L186.37 19.77L185.08 19.77L185.08 22ZM185.08 15.47L185.08 17.93L186.40 17.93Q187.13 17.93 187.50 17.61Q187.87 17.29 187.87 16.71L187.87 16.71Q187.87 16.12 187.50 15.79Q187.13 15.47 186.40 15.47L186.40 15.47L185.08 15.47ZM194.48 21.24L194.48 21.24L195.26 19.49Q195.82 19.86 196.56 20.09Q197.31 20.32 198.03 20.32L198.03 20.32Q199.39 20.32 199.40 19.64L199.40 19.64Q199.40 19.28 199.01 19.11Q198.62 18.93 197.75 18.74L197.75 18.74Q196.80 18.53 196.17 18.30Q195.53 18.06 195.08 17.55Q194.62 17.03 194.62 16.16L194.62 16.16Q194.62 15.39 195.04 14.77Q195.46 14.15 196.30 13.79Q197.13 13.43 198.34 13.43L198.34 13.43Q199.16 13.43 199.97 13.62Q200.78 13.80 201.39 14.17L201.39 14.17L200.66 15.93Q199.46 15.28 198.33 15.28L198.33 15.28Q197.62 15.28 197.29 15.49Q196.97 15.70 196.97 16.04L196.97 16.04Q196.97 16.37 197.36 16.54Q197.74 16.71 198.59 16.89L198.59 16.89Q199.55 17.10 200.18 17.33Q200.81 17.56 201.27 18.07Q201.74 18.58 201.74 19.46L201.74 19.46Q201.74 20.21 201.32 20.83Q200.90 21.44 200.06 21.80Q199.22 22.17 198.02 22.17L198.02 22.17Q197.00 22.17 196.03 21.92Q195.07 21.67 194.48 21.24ZM208.69 22L206.31 22L206.31 13.60L208.69 13.60L208.69 16.76L211.93 16.76L211.93 13.60L214.30 13.60L214.30 22L211.93 22L211.93 18.72L208.69 18.72L208.69 22ZM226.21 22L219.47 22L219.47 13.60L226.06 13.60L226.06 15.44L221.82 15.44L221.82 16.85L225.55 16.85L225.55 18.63L221.82 18.63L221.82 20.17L226.21 20.17L226.21 22ZM237.40 22L231.02 22L231.02 13.60L233.39 13.60L233.39 20.11L237.40 20.11L237.40 22ZM248.21 22L241.82 22L241.82 13.60L244.20 13.60L244.20 20.11L248.21 20.11L248.21 22Z" fill="#FFFFFF" x="126.31" data-darkreader-inline-fill="" style="--darkreader-inline-fill:#181a1b;"/></svg>